<mxfile host="Electron" modified="2023-08-21T01:38:49.114Z" agent="Mozilla/5.0 (Windows NT 10.0; Win64; x64) AppleWebKit/537.36 (KHTML, like Gecko) draw.io/21.6.5 Chrome/114.0.5735.243 Electron/25.3.1 Safari/537.36" etag="5k1hR5qQ8YE-QhjRYcBq" version="21.6.5" type="device">
  <diagram id="R2lEEEUBdFMjLlhIrx00" name="Page-1">
    <mxGraphModel dx="1467" dy="873" grid="1" gridSize="10" guides="1" tooltips="1" connect="1" arrows="1" fold="1" page="1" pageScale="1" pageWidth="850" pageHeight="1100" math="0" shadow="0" extFonts="Permanent Marker^https://fonts.googleapis.com/css?family=Permanent+Marker">
      <root>
        <mxCell id="0" />
        <mxCell id="1" parent="0" />
        <mxCell id="5n9DnabvHOIzad0tQ0xk-1" value="&lt;b&gt;JESÚS ALBERTO DOMÍNGUEZ CHARRIS&lt;/b&gt;" style="text;html=1;align=center;verticalAlign=middle;resizable=0;points=[];autosize=1;strokeColor=none;fillColor=none;" parent="1" vertex="1">
          <mxGeometry x="570" y="30" width="260" height="30" as="geometry" />
        </mxCell>
        <mxCell id="WU8Xq_cLeQHDQ70CtlRt-14" value="&lt;b&gt;BASES DE DATOS / #63487 / UNIDAD 1&lt;/b&gt;" style="text;html=1;align=center;verticalAlign=middle;resizable=0;points=[];autosize=1;strokeColor=none;fillColor=none;" parent="1" vertex="1">
          <mxGeometry x="40" y="30" width="250" height="30" as="geometry" />
        </mxCell>
        <mxCell id="j8Mh-WD37JmeU_nkLAJk-22" style="edgeStyle=orthogonalEdgeStyle;rounded=0;orthogonalLoop=1;jettySize=auto;html=1;exitX=0.5;exitY=1;exitDx=0;exitDy=0;entryX=0.5;entryY=0;entryDx=0;entryDy=0;endArrow=none;endFill=0;" edge="1" parent="1" source="j8Mh-WD37JmeU_nkLAJk-1" target="j8Mh-WD37JmeU_nkLAJk-2">
          <mxGeometry relative="1" as="geometry" />
        </mxCell>
        <mxCell id="j8Mh-WD37JmeU_nkLAJk-1" value="Clientes" style="whiteSpace=wrap;html=1;align=center;" vertex="1" parent="1">
          <mxGeometry x="180" y="100" width="100" height="40" as="geometry" />
        </mxCell>
        <mxCell id="j8Mh-WD37JmeU_nkLAJk-2" value="Número" style="ellipse;whiteSpace=wrap;html=1;align=center;fontStyle=4;" vertex="1" parent="1">
          <mxGeometry x="120" y="180" width="100" height="40" as="geometry" />
        </mxCell>
        <mxCell id="j8Mh-WD37JmeU_nkLAJk-23" style="edgeStyle=orthogonalEdgeStyle;rounded=0;orthogonalLoop=1;jettySize=auto;html=1;exitX=0.5;exitY=0;exitDx=0;exitDy=0;entryX=0.5;entryY=1;entryDx=0;entryDy=0;endArrow=none;endFill=0;" edge="1" parent="1" source="j8Mh-WD37JmeU_nkLAJk-3" target="j8Mh-WD37JmeU_nkLAJk-1">
          <mxGeometry relative="1" as="geometry" />
        </mxCell>
        <mxCell id="j8Mh-WD37JmeU_nkLAJk-3" value="Saldo" style="ellipse;whiteSpace=wrap;html=1;align=center;" vertex="1" parent="1">
          <mxGeometry x="240" y="180" width="100" height="40" as="geometry" />
        </mxCell>
        <mxCell id="j8Mh-WD37JmeU_nkLAJk-96" style="edgeStyle=orthogonalEdgeStyle;rounded=0;orthogonalLoop=1;jettySize=auto;html=1;exitX=0;exitY=0.5;exitDx=0;exitDy=0;entryX=1;entryY=0.5;entryDx=0;entryDy=0;endArrow=none;endFill=0;" edge="1" parent="1" source="j8Mh-WD37JmeU_nkLAJk-4" target="j8Mh-WD37JmeU_nkLAJk-1">
          <mxGeometry relative="1" as="geometry" />
        </mxCell>
        <mxCell id="j8Mh-WD37JmeU_nkLAJk-4" value="Descuento" style="ellipse;whiteSpace=wrap;html=1;align=center;" vertex="1" parent="1">
          <mxGeometry x="350" y="100" width="100" height="40" as="geometry" />
        </mxCell>
        <mxCell id="j8Mh-WD37JmeU_nkLAJk-24" style="edgeStyle=orthogonalEdgeStyle;rounded=0;orthogonalLoop=1;jettySize=auto;html=1;exitX=0.5;exitY=0;exitDx=0;exitDy=0;entryX=0.5;entryY=1;entryDx=0;entryDy=0;endArrow=none;endFill=0;" edge="1" parent="1" source="j8Mh-WD37JmeU_nkLAJk-6" target="j8Mh-WD37JmeU_nkLAJk-1">
          <mxGeometry relative="1" as="geometry" />
        </mxCell>
        <mxCell id="j8Mh-WD37JmeU_nkLAJk-6" value="Límite CR" style="ellipse;whiteSpace=wrap;html=1;align=center;" vertex="1" parent="1">
          <mxGeometry x="360" y="180" width="100" height="40" as="geometry" />
        </mxCell>
        <mxCell id="j8Mh-WD37JmeU_nkLAJk-25" style="edgeStyle=orthogonalEdgeStyle;rounded=0;orthogonalLoop=1;jettySize=auto;html=1;exitX=0.5;exitY=0;exitDx=0;exitDy=0;entryX=0.5;entryY=1;entryDx=0;entryDy=0;endArrow=none;endFill=0;" edge="1" parent="1" source="j8Mh-WD37JmeU_nkLAJk-7" target="j8Mh-WD37JmeU_nkLAJk-1">
          <mxGeometry relative="1" as="geometry" />
        </mxCell>
        <mxCell id="j8Mh-WD37JmeU_nkLAJk-26" style="edgeStyle=orthogonalEdgeStyle;rounded=0;orthogonalLoop=1;jettySize=auto;html=1;exitX=1;exitY=0.5;exitDx=0;exitDy=0;entryX=0;entryY=0.5;entryDx=0;entryDy=0;endArrow=none;endFill=0;" edge="1" parent="1" source="j8Mh-WD37JmeU_nkLAJk-7" target="j8Mh-WD37JmeU_nkLAJk-8">
          <mxGeometry relative="1" as="geometry" />
        </mxCell>
        <mxCell id="j8Mh-WD37JmeU_nkLAJk-27" style="edgeStyle=orthogonalEdgeStyle;rounded=0;orthogonalLoop=1;jettySize=auto;html=1;exitX=1;exitY=0.5;exitDx=0;exitDy=0;entryX=0;entryY=0.5;entryDx=0;entryDy=0;endArrow=none;endFill=0;" edge="1" parent="1" source="j8Mh-WD37JmeU_nkLAJk-7" target="j8Mh-WD37JmeU_nkLAJk-9">
          <mxGeometry relative="1" as="geometry" />
        </mxCell>
        <mxCell id="j8Mh-WD37JmeU_nkLAJk-28" style="edgeStyle=orthogonalEdgeStyle;rounded=0;orthogonalLoop=1;jettySize=auto;html=1;exitX=1;exitY=0.5;exitDx=0;exitDy=0;entryX=0;entryY=0.5;entryDx=0;entryDy=0;endArrow=none;endFill=0;" edge="1" parent="1" source="j8Mh-WD37JmeU_nkLAJk-7" target="j8Mh-WD37JmeU_nkLAJk-10">
          <mxGeometry relative="1" as="geometry" />
        </mxCell>
        <mxCell id="j8Mh-WD37JmeU_nkLAJk-29" style="edgeStyle=orthogonalEdgeStyle;rounded=0;orthogonalLoop=1;jettySize=auto;html=1;exitX=1;exitY=0.5;exitDx=0;exitDy=0;entryX=0;entryY=0.5;entryDx=0;entryDy=0;endArrow=none;endFill=0;" edge="1" parent="1" source="j8Mh-WD37JmeU_nkLAJk-7" target="j8Mh-WD37JmeU_nkLAJk-11">
          <mxGeometry relative="1" as="geometry" />
        </mxCell>
        <mxCell id="j8Mh-WD37JmeU_nkLAJk-7" value="Dirección" style="ellipse;shape=doubleEllipse;margin=3;whiteSpace=wrap;html=1;align=center;" vertex="1" parent="1">
          <mxGeometry x="475" y="180" width="100" height="40" as="geometry" />
        </mxCell>
        <mxCell id="j8Mh-WD37JmeU_nkLAJk-8" value="No." style="ellipse;whiteSpace=wrap;html=1;align=center;" vertex="1" parent="1">
          <mxGeometry x="620" y="110" width="100" height="40" as="geometry" />
        </mxCell>
        <mxCell id="j8Mh-WD37JmeU_nkLAJk-9" value="Calle" style="ellipse;whiteSpace=wrap;html=1;align=center;" vertex="1" parent="1">
          <mxGeometry x="620" y="160" width="100" height="40" as="geometry" />
        </mxCell>
        <mxCell id="j8Mh-WD37JmeU_nkLAJk-10" value="Carrera" style="ellipse;whiteSpace=wrap;html=1;align=center;" vertex="1" parent="1">
          <mxGeometry x="620" y="210" width="100" height="40" as="geometry" />
        </mxCell>
        <mxCell id="j8Mh-WD37JmeU_nkLAJk-11" value="Ciudad" style="ellipse;whiteSpace=wrap;html=1;align=center;" vertex="1" parent="1">
          <mxGeometry x="620" y="260" width="100" height="40" as="geometry" />
        </mxCell>
        <mxCell id="j8Mh-WD37JmeU_nkLAJk-69" style="edgeStyle=orthogonalEdgeStyle;rounded=0;orthogonalLoop=1;jettySize=auto;html=1;exitX=0;exitY=0.5;exitDx=0;exitDy=0;entryX=0;entryY=0.5;entryDx=0;entryDy=0;" edge="1" parent="1" source="j8Mh-WD37JmeU_nkLAJk-12" target="j8Mh-WD37JmeU_nkLAJk-1">
          <mxGeometry relative="1" as="geometry" />
        </mxCell>
        <mxCell id="j8Mh-WD37JmeU_nkLAJk-70" style="edgeStyle=orthogonalEdgeStyle;rounded=0;orthogonalLoop=1;jettySize=auto;html=1;exitX=1;exitY=0.5;exitDx=0;exitDy=0;entryX=0.5;entryY=0;entryDx=0;entryDy=0;endArrow=none;endFill=0;" edge="1" parent="1" source="j8Mh-WD37JmeU_nkLAJk-12" target="j8Mh-WD37JmeU_nkLAJk-13">
          <mxGeometry relative="1" as="geometry" />
        </mxCell>
        <mxCell id="j8Mh-WD37JmeU_nkLAJk-12" value="Pedir" style="shape=rhombus;perimeter=rhombusPerimeter;whiteSpace=wrap;html=1;align=center;" vertex="1" parent="1">
          <mxGeometry x="70" y="300" width="120" height="60" as="geometry" />
        </mxCell>
        <mxCell id="j8Mh-WD37JmeU_nkLAJk-38" style="edgeStyle=orthogonalEdgeStyle;rounded=0;orthogonalLoop=1;jettySize=auto;html=1;exitX=0.5;exitY=1;exitDx=0;exitDy=0;entryX=0.5;entryY=0;entryDx=0;entryDy=0;endArrow=none;endFill=0;" edge="1" parent="1" source="j8Mh-WD37JmeU_nkLAJk-13" target="j8Mh-WD37JmeU_nkLAJk-16">
          <mxGeometry relative="1" as="geometry" />
        </mxCell>
        <mxCell id="j8Mh-WD37JmeU_nkLAJk-13" value="Pedido Cabecera" style="whiteSpace=wrap;html=1;align=center;" vertex="1" parent="1">
          <mxGeometry x="160" y="430" width="100" height="40" as="geometry" />
        </mxCell>
        <mxCell id="j8Mh-WD37JmeU_nkLAJk-56" style="edgeStyle=orthogonalEdgeStyle;rounded=0;orthogonalLoop=1;jettySize=auto;html=1;exitX=1;exitY=0.5;exitDx=0;exitDy=0;entryX=0;entryY=0.5;entryDx=0;entryDy=0;endArrow=none;endFill=0;" edge="1" parent="1" source="j8Mh-WD37JmeU_nkLAJk-14" target="j8Mh-WD37JmeU_nkLAJk-13">
          <mxGeometry relative="1" as="geometry" />
        </mxCell>
        <mxCell id="j8Mh-WD37JmeU_nkLAJk-14" value="No. Cliente" style="ellipse;whiteSpace=wrap;html=1;align=center;" vertex="1" parent="1">
          <mxGeometry x="10" y="470" width="100" height="40" as="geometry" />
        </mxCell>
        <mxCell id="j8Mh-WD37JmeU_nkLAJk-49" style="edgeStyle=orthogonalEdgeStyle;rounded=0;orthogonalLoop=1;jettySize=auto;html=1;exitX=1;exitY=0.5;exitDx=0;exitDy=0;entryX=0.25;entryY=1;entryDx=0;entryDy=0;endArrow=none;endFill=0;" edge="1" parent="1" source="j8Mh-WD37JmeU_nkLAJk-15" target="j8Mh-WD37JmeU_nkLAJk-13">
          <mxGeometry relative="1" as="geometry" />
        </mxCell>
        <mxCell id="j8Mh-WD37JmeU_nkLAJk-51" style="edgeStyle=orthogonalEdgeStyle;rounded=0;orthogonalLoop=1;jettySize=auto;html=1;exitX=0;exitY=1;exitDx=0;exitDy=0;entryX=0;entryY=0.5;entryDx=0;entryDy=0;endArrow=none;endFill=0;" edge="1" parent="1" source="j8Mh-WD37JmeU_nkLAJk-15" target="j8Mh-WD37JmeU_nkLAJk-20">
          <mxGeometry relative="1" as="geometry" />
        </mxCell>
        <mxCell id="j8Mh-WD37JmeU_nkLAJk-15" value="Dirección" style="ellipse;whiteSpace=wrap;html=1;align=center;" vertex="1" parent="1">
          <mxGeometry x="10" y="530" width="100" height="40" as="geometry" />
        </mxCell>
        <mxCell id="j8Mh-WD37JmeU_nkLAJk-16" value="Fecha" style="ellipse;whiteSpace=wrap;html=1;align=center;" vertex="1" parent="1">
          <mxGeometry x="220" y="550" width="100" height="40" as="geometry" />
        </mxCell>
        <mxCell id="j8Mh-WD37JmeU_nkLAJk-55" style="edgeStyle=orthogonalEdgeStyle;rounded=0;orthogonalLoop=1;jettySize=auto;html=1;exitX=0;exitY=0.5;exitDx=0;exitDy=0;entryX=0;entryY=1;entryDx=0;entryDy=0;endArrow=none;endFill=0;" edge="1" parent="1" source="j8Mh-WD37JmeU_nkLAJk-17" target="j8Mh-WD37JmeU_nkLAJk-15">
          <mxGeometry relative="1" as="geometry" />
        </mxCell>
        <mxCell id="j8Mh-WD37JmeU_nkLAJk-17" value="No." style="ellipse;whiteSpace=wrap;html=1;align=center;" vertex="1" parent="1">
          <mxGeometry x="50" y="590" width="100" height="40" as="geometry" />
        </mxCell>
        <mxCell id="j8Mh-WD37JmeU_nkLAJk-54" style="edgeStyle=orthogonalEdgeStyle;rounded=0;orthogonalLoop=1;jettySize=auto;html=1;exitX=0;exitY=0.5;exitDx=0;exitDy=0;entryX=0;entryY=1;entryDx=0;entryDy=0;endArrow=none;endFill=0;" edge="1" parent="1" source="j8Mh-WD37JmeU_nkLAJk-18" target="j8Mh-WD37JmeU_nkLAJk-15">
          <mxGeometry relative="1" as="geometry" />
        </mxCell>
        <mxCell id="j8Mh-WD37JmeU_nkLAJk-18" value="Calle" style="ellipse;whiteSpace=wrap;html=1;align=center;" vertex="1" parent="1">
          <mxGeometry x="50" y="650" width="100" height="40" as="geometry" />
        </mxCell>
        <mxCell id="j8Mh-WD37JmeU_nkLAJk-52" style="edgeStyle=orthogonalEdgeStyle;rounded=0;orthogonalLoop=1;jettySize=auto;html=1;exitX=0;exitY=0.5;exitDx=0;exitDy=0;entryX=0;entryY=1;entryDx=0;entryDy=0;endArrow=none;endFill=0;" edge="1" parent="1" source="j8Mh-WD37JmeU_nkLAJk-19" target="j8Mh-WD37JmeU_nkLAJk-15">
          <mxGeometry relative="1" as="geometry" />
        </mxCell>
        <mxCell id="j8Mh-WD37JmeU_nkLAJk-19" value="Carrera" style="ellipse;whiteSpace=wrap;html=1;align=center;" vertex="1" parent="1">
          <mxGeometry x="50" y="710" width="100" height="40" as="geometry" />
        </mxCell>
        <mxCell id="j8Mh-WD37JmeU_nkLAJk-20" value="Ciudad" style="ellipse;whiteSpace=wrap;html=1;align=center;" vertex="1" parent="1">
          <mxGeometry x="50" y="770" width="100" height="40" as="geometry" />
        </mxCell>
        <mxCell id="j8Mh-WD37JmeU_nkLAJk-57" style="edgeStyle=orthogonalEdgeStyle;rounded=0;orthogonalLoop=1;jettySize=auto;html=1;exitX=1;exitY=0.5;exitDx=0;exitDy=0;entryX=0;entryY=0.5;entryDx=0;entryDy=0;endArrow=none;endFill=0;" edge="1" parent="1" source="j8Mh-WD37JmeU_nkLAJk-33" target="j8Mh-WD37JmeU_nkLAJk-13">
          <mxGeometry relative="1" as="geometry" />
        </mxCell>
        <mxCell id="j8Mh-WD37JmeU_nkLAJk-33" value="No. Pedido" style="ellipse;whiteSpace=wrap;html=1;align=center;fontStyle=4;" vertex="1" parent="1">
          <mxGeometry x="10" y="390" width="100" height="40" as="geometry" />
        </mxCell>
        <mxCell id="j8Mh-WD37JmeU_nkLAJk-75" style="edgeStyle=orthogonalEdgeStyle;rounded=0;orthogonalLoop=1;jettySize=auto;html=1;exitX=0.5;exitY=0;exitDx=0;exitDy=0;entryX=0.5;entryY=1;entryDx=0;entryDy=0;endArrow=none;endFill=0;" edge="1" parent="1" source="j8Mh-WD37JmeU_nkLAJk-58" target="j8Mh-WD37JmeU_nkLAJk-67">
          <mxGeometry relative="1" as="geometry" />
        </mxCell>
        <mxCell id="j8Mh-WD37JmeU_nkLAJk-58" value="Pedido Cuerpo" style="whiteSpace=wrap;html=1;align=center;" vertex="1" parent="1">
          <mxGeometry x="332" y="620" width="100" height="40" as="geometry" />
        </mxCell>
        <mxCell id="j8Mh-WD37JmeU_nkLAJk-72" style="edgeStyle=orthogonalEdgeStyle;rounded=0;orthogonalLoop=1;jettySize=auto;html=1;exitX=0.5;exitY=0;exitDx=0;exitDy=0;entryX=0.5;entryY=1;entryDx=0;entryDy=0;endArrow=none;endFill=0;" edge="1" parent="1" source="j8Mh-WD37JmeU_nkLAJk-59" target="j8Mh-WD37JmeU_nkLAJk-58">
          <mxGeometry relative="1" as="geometry" />
        </mxCell>
        <mxCell id="j8Mh-WD37JmeU_nkLAJk-59" value="ID" style="ellipse;whiteSpace=wrap;html=1;align=center;fontStyle=4;" vertex="1" parent="1">
          <mxGeometry x="222" y="700" width="100" height="40" as="geometry" />
        </mxCell>
        <mxCell id="j8Mh-WD37JmeU_nkLAJk-73" style="edgeStyle=orthogonalEdgeStyle;rounded=0;orthogonalLoop=1;jettySize=auto;html=1;exitX=0.5;exitY=0;exitDx=0;exitDy=0;entryX=0.5;entryY=1;entryDx=0;entryDy=0;endArrow=none;endFill=0;" edge="1" parent="1" source="j8Mh-WD37JmeU_nkLAJk-60" target="j8Mh-WD37JmeU_nkLAJk-58">
          <mxGeometry relative="1" as="geometry" />
        </mxCell>
        <mxCell id="j8Mh-WD37JmeU_nkLAJk-60" value="No. Artículo" style="ellipse;whiteSpace=wrap;html=1;align=center;" vertex="1" parent="1">
          <mxGeometry x="332" y="700" width="100" height="40" as="geometry" />
        </mxCell>
        <mxCell id="j8Mh-WD37JmeU_nkLAJk-74" style="edgeStyle=orthogonalEdgeStyle;rounded=0;orthogonalLoop=1;jettySize=auto;html=1;exitX=0.5;exitY=0;exitDx=0;exitDy=0;entryX=0.5;entryY=1;entryDx=0;entryDy=0;endArrow=none;endFill=0;" edge="1" parent="1" source="j8Mh-WD37JmeU_nkLAJk-61" target="j8Mh-WD37JmeU_nkLAJk-58">
          <mxGeometry relative="1" as="geometry" />
        </mxCell>
        <mxCell id="j8Mh-WD37JmeU_nkLAJk-61" value="Cantidad" style="ellipse;whiteSpace=wrap;html=1;align=center;" vertex="1" parent="1">
          <mxGeometry x="442" y="700" width="100" height="40" as="geometry" />
        </mxCell>
        <mxCell id="j8Mh-WD37JmeU_nkLAJk-62" value="Artículo" style="whiteSpace=wrap;html=1;align=center;" vertex="1" parent="1">
          <mxGeometry x="342" y="320" width="100" height="40" as="geometry" />
        </mxCell>
        <mxCell id="j8Mh-WD37JmeU_nkLAJk-65" style="edgeStyle=orthogonalEdgeStyle;rounded=0;orthogonalLoop=1;jettySize=auto;html=1;exitX=0.5;exitY=1;exitDx=0;exitDy=0;entryX=0.5;entryY=0;entryDx=0;entryDy=0;endArrow=none;endFill=0;" edge="1" parent="1" source="j8Mh-WD37JmeU_nkLAJk-63" target="j8Mh-WD37JmeU_nkLAJk-62">
          <mxGeometry relative="1" as="geometry" />
        </mxCell>
        <mxCell id="j8Mh-WD37JmeU_nkLAJk-63" value="Número" style="ellipse;whiteSpace=wrap;html=1;align=center;fontStyle=4;" vertex="1" parent="1">
          <mxGeometry x="280" y="245" width="100" height="40" as="geometry" />
        </mxCell>
        <mxCell id="j8Mh-WD37JmeU_nkLAJk-66" style="edgeStyle=orthogonalEdgeStyle;rounded=0;orthogonalLoop=1;jettySize=auto;html=1;exitX=0.5;exitY=1;exitDx=0;exitDy=0;endArrow=none;endFill=0;" edge="1" parent="1" source="j8Mh-WD37JmeU_nkLAJk-64">
          <mxGeometry relative="1" as="geometry">
            <mxPoint x="392" y="320" as="targetPoint" />
          </mxGeometry>
        </mxCell>
        <mxCell id="j8Mh-WD37JmeU_nkLAJk-64" value="Descripción" style="ellipse;whiteSpace=wrap;html=1;align=center;" vertex="1" parent="1">
          <mxGeometry x="402" y="245" width="100" height="40" as="geometry" />
        </mxCell>
        <mxCell id="j8Mh-WD37JmeU_nkLAJk-76" style="edgeStyle=orthogonalEdgeStyle;rounded=0;orthogonalLoop=1;jettySize=auto;html=1;exitX=0;exitY=0.5;exitDx=0;exitDy=0;entryX=1;entryY=0.5;entryDx=0;entryDy=0;" edge="1" parent="1" source="j8Mh-WD37JmeU_nkLAJk-67" target="j8Mh-WD37JmeU_nkLAJk-13">
          <mxGeometry relative="1" as="geometry" />
        </mxCell>
        <mxCell id="j8Mh-WD37JmeU_nkLAJk-67" value="Contiene" style="shape=rhombus;perimeter=rhombusPerimeter;whiteSpace=wrap;html=1;align=center;" vertex="1" parent="1">
          <mxGeometry x="322" y="420" width="120" height="60" as="geometry" />
        </mxCell>
        <mxCell id="j8Mh-WD37JmeU_nkLAJk-80" style="edgeStyle=orthogonalEdgeStyle;rounded=0;orthogonalLoop=1;jettySize=auto;html=1;exitX=0.5;exitY=0;exitDx=0;exitDy=0;entryX=1;entryY=0.75;entryDx=0;entryDy=0;" edge="1" parent="1" source="j8Mh-WD37JmeU_nkLAJk-78" target="j8Mh-WD37JmeU_nkLAJk-62">
          <mxGeometry relative="1" as="geometry" />
        </mxCell>
        <mxCell id="j8Mh-WD37JmeU_nkLAJk-81" style="edgeStyle=orthogonalEdgeStyle;rounded=0;orthogonalLoop=1;jettySize=auto;html=1;exitX=0.5;exitY=1;exitDx=0;exitDy=0;entryX=1;entryY=0.5;entryDx=0;entryDy=0;endArrow=none;endFill=0;" edge="1" parent="1" source="j8Mh-WD37JmeU_nkLAJk-78" target="j8Mh-WD37JmeU_nkLAJk-58">
          <mxGeometry relative="1" as="geometry" />
        </mxCell>
        <mxCell id="j8Mh-WD37JmeU_nkLAJk-78" value="..." style="shape=rhombus;perimeter=rhombusPerimeter;whiteSpace=wrap;html=1;align=center;" vertex="1" parent="1">
          <mxGeometry x="450" y="420" width="120" height="60" as="geometry" />
        </mxCell>
        <mxCell id="j8Mh-WD37JmeU_nkLAJk-89" style="edgeStyle=orthogonalEdgeStyle;rounded=0;orthogonalLoop=1;jettySize=auto;html=1;exitX=0.5;exitY=0;exitDx=0;exitDy=0;entryX=0.5;entryY=1;entryDx=0;entryDy=0;endArrow=none;endFill=0;" edge="1" parent="1" source="j8Mh-WD37JmeU_nkLAJk-82" target="j8Mh-WD37JmeU_nkLAJk-86">
          <mxGeometry relative="1" as="geometry" />
        </mxCell>
        <mxCell id="j8Mh-WD37JmeU_nkLAJk-92" style="edgeStyle=orthogonalEdgeStyle;rounded=0;orthogonalLoop=1;jettySize=auto;html=1;exitX=1;exitY=0.5;exitDx=0;exitDy=0;entryX=1;entryY=0.5;entryDx=0;entryDy=0;endArrow=none;endFill=0;" edge="1" parent="1" source="j8Mh-WD37JmeU_nkLAJk-82" target="j8Mh-WD37JmeU_nkLAJk-83">
          <mxGeometry relative="1" as="geometry" />
        </mxCell>
        <mxCell id="j8Mh-WD37JmeU_nkLAJk-94" style="edgeStyle=orthogonalEdgeStyle;rounded=0;orthogonalLoop=1;jettySize=auto;html=1;exitX=1;exitY=0.5;exitDx=0;exitDy=0;entryX=1;entryY=0.5;entryDx=0;entryDy=0;endArrow=none;endFill=0;" edge="1" parent="1" source="j8Mh-WD37JmeU_nkLAJk-82" target="j8Mh-WD37JmeU_nkLAJk-84">
          <mxGeometry relative="1" as="geometry" />
        </mxCell>
        <mxCell id="j8Mh-WD37JmeU_nkLAJk-95" style="edgeStyle=orthogonalEdgeStyle;rounded=0;orthogonalLoop=1;jettySize=auto;html=1;exitX=1;exitY=0.5;exitDx=0;exitDy=0;entryX=1;entryY=0.5;entryDx=0;entryDy=0;endArrow=none;endFill=0;" edge="1" parent="1" source="j8Mh-WD37JmeU_nkLAJk-82" target="j8Mh-WD37JmeU_nkLAJk-85">
          <mxGeometry relative="1" as="geometry" />
        </mxCell>
        <mxCell id="j8Mh-WD37JmeU_nkLAJk-82" value="Fábrica" style="whiteSpace=wrap;html=1;align=center;" vertex="1" parent="1">
          <mxGeometry x="600" y="530" width="100" height="40" as="geometry" />
        </mxCell>
        <mxCell id="j8Mh-WD37JmeU_nkLAJk-83" value="Número" style="ellipse;whiteSpace=wrap;html=1;align=center;" vertex="1" parent="1">
          <mxGeometry x="600" y="600" width="100" height="40" as="geometry" />
        </mxCell>
        <mxCell id="j8Mh-WD37JmeU_nkLAJk-84" value="Teléfono" style="ellipse;whiteSpace=wrap;html=1;align=center;" vertex="1" parent="1">
          <mxGeometry x="600" y="660" width="100" height="40" as="geometry" />
        </mxCell>
        <mxCell id="j8Mh-WD37JmeU_nkLAJk-85" value="Cant. Artículos producidos" style="ellipse;whiteSpace=wrap;html=1;align=center;dashed=1;" vertex="1" parent="1">
          <mxGeometry x="600" y="720" width="100" height="40" as="geometry" />
        </mxCell>
        <mxCell id="j8Mh-WD37JmeU_nkLAJk-90" style="edgeStyle=orthogonalEdgeStyle;rounded=0;orthogonalLoop=1;jettySize=auto;html=1;exitX=0.5;exitY=0;exitDx=0;exitDy=0;entryX=1;entryY=0.5;entryDx=0;entryDy=0;endArrow=none;endFill=0;" edge="1" parent="1" source="j8Mh-WD37JmeU_nkLAJk-86" target="j8Mh-WD37JmeU_nkLAJk-62">
          <mxGeometry relative="1" as="geometry" />
        </mxCell>
        <mxCell id="j8Mh-WD37JmeU_nkLAJk-91" style="edgeStyle=orthogonalEdgeStyle;rounded=0;orthogonalLoop=1;jettySize=auto;html=1;exitX=1;exitY=0.5;exitDx=0;exitDy=0;entryX=0;entryY=0.5;entryDx=0;entryDy=0;endArrow=none;endFill=0;" edge="1" parent="1" source="j8Mh-WD37JmeU_nkLAJk-86" target="j8Mh-WD37JmeU_nkLAJk-87">
          <mxGeometry relative="1" as="geometry" />
        </mxCell>
        <mxCell id="j8Mh-WD37JmeU_nkLAJk-86" value="Relationship" style="shape=rhombus;perimeter=rhombusPerimeter;whiteSpace=wrap;html=1;align=center;" vertex="1" parent="1">
          <mxGeometry x="590" y="420" width="120" height="60" as="geometry" />
        </mxCell>
        <mxCell id="j8Mh-WD37JmeU_nkLAJk-87" value="Cantidad existancía" style="ellipse;whiteSpace=wrap;html=1;align=center;" vertex="1" parent="1">
          <mxGeometry x="730" y="430" width="100" height="40" as="geometry" />
        </mxCell>
      </root>
    </mxGraphModel>
  </diagram>
</mxfile>
